<?xml version="1.0" standalone="no"?>
<!DOCTYPE svg PUBLIC "-//W3C//DTD SVG 20010904//EN"
 "http://www.w3.org/TR/2001/REC-SVG-20010904/DTD/svg10.dtd">
<svg version="1.0" xmlns="http://www.w3.org/2000/svg"
 width="870.000000pt" height="520.000000pt" viewBox="0 0 870.000000 520.000000"
 preserveAspectRatio="xMidYMid meet">

<g transform="translate(0.000000,520.000000) scale(0.100000,-0.100000)"
fill="#000000" stroke="none">
<path d="M0 2600 l0 -2600 4350 0 4350 0 0 2600 0 2600 -4350 0 -4350 0 0
-2600z m5430 923 c99 -49 172 -120 217 -211 l38 -76 3 -503 c3 -550 1 -574
-55 -670 -57 -98 -165 -177 -274 -202 -24 -6 -162 -11 -306 -11 l-263 0 -47
-65 c-27 -36 -66 -90 -88 -119 -22 -30 -46 -62 -53 -73 -7 -10 -46 -65 -87
-123 -41 -57 -75 -108 -75 -112 0 -5 -9 -8 -19 -8 -13 0 -44 33 -93 101 -40
56 -121 168 -181 249 l-107 149 -313 3 c-296 3 -315 5 -367 26 -119 48 -211
144 -250 262 -21 62 -22 82 -26 515 -1 248 1 484 6 524 12 96 54 182 121 249
55 54 155 110 217 123 20 4 465 6 987 5 l950 -1 65 -32z m-2198 -2528 c-4 -48
-16 -59 -26 -22 -11 42 -7 67 12 67 14 0 17 -7 14 -45z m-536 -10 c14 -25 29
-45 33 -45 3 0 18 20 33 45 15 25 35 45 44 45 13 0 11 -8 -12 -47 -15 -27 -33
-57 -41 -68 -7 -11 -13 -41 -13 -67 0 -36 -4 -48 -15 -48 -11 0 -15 13 -15 53
0 42 -7 63 -35 110 -40 66 -40 67 -20 67 8 0 26 -20 41 -45z m2122 33 c-7 -19
-38 -22 -38 -4 0 10 9 16 21 16 12 0 19 -5 17 -12z m982 -3 c0 -8 -7 -15 -15
-15 -8 0 -15 7 -15 15 0 8 7 15 15 15 8 0 15 -7 15 -15z m80 -15 c0 -16 7 -20
30 -20 39 0 41 -27 3 -32 -25 -3 -28 -8 -31 -42 -5 -64 5 -89 34 -83 19 3 24
1 22 -12 -4 -21 -51 -26 -68 -6 -14 17 -30 150 -22 190 5 30 32 34 32 5z
m-2936 -39 c23 -26 31 -84 16 -121 -36 -86 -140 -54 -140 43 0 59 29 97 74 97
19 0 40 -8 50 -19z m96 -50 c0 -80 14 -101 55 -83 23 11 25 17 25 82 0 56 3
70 15 70 12 0 15 -17 15 -90 0 -87 -1 -90 -22 -89 -13 0 -35 -3 -50 -6 -19 -5
-32 -1 -47 14 -18 18 -21 33 -21 96 0 60 3 75 15 75 12 0 15 -14 15 -69z m282
4 c12 -36 25 -65 28 -65 3 0 16 29 28 65 15 41 29 65 39 65 8 0 13 -4 11 -8
-1 -4 -16 -45 -33 -90 -45 -123 -49 -120 -123 86 -2 6 3 12 11 12 10 0 24 -24
39 -65z m251 47 c9 -10 20 -33 23 -50 l7 -32 -62 0 c-65 0 -77 -12 -45 -44 18
-18 47 -20 75 -6 16 9 19 7 19 -9 0 -42 -106 -36 -129 8 -18 33 -13 96 10 125
25 32 77 36 102 8z m305 -89 c-3 -90 -6 -107 -22 -119 -27 -19 -106 -19 -106
0 0 11 14 16 47 18 36 2 49 7 51 20 3 14 -3 16 -33 11 -62 -10 -95 44 -74 121
12 44 31 55 92 54 l49 -1 -4 -104z m172 80 c18 -23 21 -37 17 -77 -7 -81 -71
-113 -122 -61 -33 32 -35 100 -4 139 29 37 80 36 109 -1z m187 15 c20 -16 18
-168 -2 -168 -11 0 -15 17 -17 73 -3 67 -5 72 -26 75 -40 6 -52 -14 -52 -84 0
-50 -3 -64 -15 -64 -12 0 -15 16 -15 83 0 46 2 86 4 88 10 9 111 7 123 -3z
m193 -3 c6 -7 14 -48 17 -89 6 -73 5 -76 -16 -76 -20 0 -21 5 -21 76 l0 75
-32 -3 -33 -3 -3 -72 c-2 -56 -6 -73 -17 -73 -12 0 -15 18 -15 88 l0 87 54 2
c37 2 58 -2 66 -12z m182 -2 c9 -10 19 -33 23 -50 l7 -33 -61 0 c-55 0 -61 -2
-61 -20 0 -30 43 -47 81 -33 25 10 29 9 29 -7 0 -36 -81 -40 -115 -5 -33 32
-35 100 -4 139 25 31 77 36 101 9z m198 -73 c0 -73 -3 -90 -15 -90 -12 0 -15
16 -15 83 0 46 3 87 7 90 18 18 23 0 23 -83z m180 74 c7 -8 15 -48 18 -89 4
-71 4 -75 -17 -75 -20 0 -21 5 -21 76 l0 75 -32 -3 -33 -3 -3 -72 c-2 -56 -6
-73 -17 -73 -12 0 -15 18 -15 88 l0 87 54 2 c38 2 57 -2 66 -13z m188 -6 c3
-14 -3 -16 -32 -11 -49 8 -66 -9 -66 -63 0 -38 4 -46 25 -56 19 -8 31 -8 50 0
22 10 25 9 25 -7 0 -18 -25 -31 -63 -31 -34 0 -67 45 -67 93 0 66 29 99 84 95
29 -2 42 -8 44 -20z m152 -5 c18 -23 21 -37 17 -77 -7 -81 -71 -113 -122 -61
-33 32 -35 100 -4 139 29 37 80 36 109 -1z m198 -80 c-3 -90 -6 -107 -22 -119
-27 -19 -106 -19 -106 0 0 11 14 16 47 18 36 2 49 7 51 20 3 14 -3 16 -33 11
-62 -10 -95 44 -74 121 12 44 31 55 92 54 l49 -1 -4 -104z m78 96 c4 -8 9 -8
17 0 19 19 65 13 81 -11 22 -31 23 -158 1 -158 -12 0 -15 14 -15 70 0 77 -8
88 -55 76 -24 -6 -25 -10 -25 -76 0 -56 -3 -70 -15 -70 -12 0 -15 17 -15 90 0
82 8 107 26 79z m194 -79 c0 -73 -3 -90 -15 -90 -12 0 -15 17 -15 90 0 73 3
90 15 90 12 0 15 -17 15 -90z m290 70 c33 -33 30 -115 -6 -147 -31 -28 -54
-29 -87 -3 -43 34 -44 124 0 158 25 18 70 15 93 -8z m110 -135 c0 -18 -5 -25
-20 -25 -15 0 -20 7 -20 25 0 18 5 25 20 25 15 0 20 -7 20 -25z"/>
<path d="M4271 3234 c-111 -23 -204 -75 -285 -157 -212 -212 -210 -516 3 -727
84 -84 164 -129 272 -155 277 -65 586 98 666 351 9 31 24 56 33 59 24 7 39 47
47 116 5 49 9 58 27 61 15 2 22 11 24 34 l3 32 -60 7 -60 7 -38 76 c-112 228
-377 352 -632 296z m294 -33 c138 -46 255 -143 314 -261 l32 -65 -128 -11
c-70 -7 -136 -15 -146 -19 -9 -4 -56 1 -105 10 -69 14 -114 16 -218 11 -73 -3
-139 -9 -148 -12 -26 -10 -21 -62 8 -76 21 -9 26 -20 32 -67 5 -47 27 -111 37
-111 2 0 30 -5 62 -11 75 -14 150 -3 176 25 12 11 39 52 61 89 61 105 80 103
140 -14 20 -41 48 -80 60 -88 13 -8 56 -16 95 -19 73 -5 73 -5 66 -31 -10 -42
-49 -115 -80 -147 -35 -38 -123 -72 -224 -87 -251 -36 -510 134 -574 378 -41
157 3 316 120 444 50 53 63 62 118 75 81 20 221 14 302 -13z m-350 -386 c0
-28 -29 -25 -33 3 -3 19 0 23 15 20 10 -2 18 -12 18 -23z m825 -1 c0 -8 -7
-14 -15 -14 -15 0 -21 21 -9 33 10 9 24 -2 24 -19z m-500 6 c0 -5 -9 -14 -20
-20 -11 -6 -32 -29 -46 -51 -13 -22 -36 -45 -49 -51 -14 -6 -34 -26 -45 -45
-20 -34 -39 -40 -87 -27 -32 9 -29 20 17 66 22 22 40 44 40 48 0 5 16 18 34
30 19 11 38 30 41 40 5 17 16 20 61 20 30 0 54 -4 54 -10z m422 -18 c-18 -15
-38 -38 -45 -52 -7 -13 -28 -35 -46 -47 -19 -13 -43 -37 -53 -53 -22 -36 -37
-38 -67 -6 l-23 24 71 72 c39 40 71 76 71 81 0 5 28 9 63 9 l62 -1 -33 -27z"/>
<path d="M2862 938 c-16 -16 -16 -90 0 -106 45 -45 101 37 68 99 -12 21 -50
25 -68 7z"/>
<path d="M3492 938 c-21 -21 -13 -28 33 -28 25 0 45 4 45 8 0 15 -24 32 -45
32 -12 0 -26 -5 -33 -12z"/>
<path d="M3782 938 c-18 -23 -23 -55 -12 -82 8 -23 15 -27 42 -24 33 3 33 4
36 61 l3 57 -29 0 c-16 0 -34 -6 -40 -12z"/>
<path d="M3960 931 c-23 -45 -3 -111 35 -111 38 0 63 88 33 118 -18 18 -56 14
-68 -7z"/>
<path d="M4532 938 c-21 -21 -13 -28 33 -28 43 0 45 1 35 20 -12 22 -49 27
-68 8z"/>
<path d="M5240 931 c-23 -45 -3 -111 35 -111 38 0 63 88 33 118 -18 18 -56 14
-68 -7z"/>
<path d="M5420 921 c-8 -21 -9 -39 -3 -58 8 -23 15 -28 44 -28 l34 0 3 58 3
57 -34 0 c-29 0 -37 -5 -47 -29z"/>
<path d="M6000 924 c-14 -36 -12 -56 6 -82 41 -59 95 6 70 86 -11 33 -63 31
-76 -4z"/>
</g>
</svg>
